<svg width="65" height="65" viewBox="0 0 65 65" fill="none" xmlns="http://www.w3.org/2000/svg">
<path d="M55.3516 6.09375V38.5938C53.0991 36.7842 50.3326 35.7324 47.4469 35.5886C44.5613 35.4447 41.7039 36.2162 39.2827 37.7928C36.8615 39.3694 35.0002 41.6706 33.9645 44.3678C32.9289 47.0651 32.7718 50.0206 33.5156 52.8125H8.63281C7.55537 52.8125 6.52206 52.3845 5.76019 51.6226C4.99832 50.8608 4.57031 49.8274 4.57031 48.75V6.09375C4.57031 5.01631 4.99832 3.983 5.76019 3.22113C6.52206 2.45926 7.55537 2.03125 8.63281 2.03125H21.3281V26.4062H38.5938V2.03125H51.2891C52.3665 2.03125 53.3998 2.45926 54.1617 3.22113C54.9235 3.983 55.3516 5.01631 55.3516 6.09375Z" fill="#FCD8AA"/>
<path d="M21.3281 2.03125H38.5938V26.4062H21.3281V2.03125Z" fill="#FFC578"/>
<path d="M60.4297 49.2578C60.427 52.368 59.3668 55.3849 57.4234 57.8132C55.4799 60.2414 52.7686 61.9368 49.7346 62.6209C46.7005 63.305 43.524 62.9372 40.7265 61.5779C37.9291 60.2186 35.6769 57.9486 34.3397 55.1405C33.0025 52.3324 32.6598 49.1531 33.3678 46.1246C34.0758 43.096 35.7925 40.3981 38.236 38.4739C40.6795 36.5496 43.7046 35.5133 46.8148 35.5351C49.9249 35.5569 52.9353 36.6355 55.3516 38.5938C56.9398 39.88 58.2201 41.5053 59.0988 43.3505C59.9775 45.1957 60.4322 47.2141 60.4297 49.2578Z" fill="#7FD73C"/>
<path d="M51.2891 0H8.63281C7.01665 0 5.46668 0.642018 4.32388 1.78482C3.18108 2.92762 2.53906 4.47759 2.53906 6.09375V48.75C2.53906 50.3662 3.18108 51.9161 4.32388 53.0589C5.46668 54.2017 7.01665 54.8438 8.63281 54.8438H31.9922C32.8342 57.061 34.1667 59.0591 35.89 60.6887C37.6132 62.3183 39.6826 63.5372 41.9434 64.2542C44.2041 64.9712 46.5978 65.1678 48.9452 64.8292C51.2927 64.4906 53.5332 63.6256 55.4992 62.299C57.4652 60.9723 59.1058 59.2183 60.2982 57.1682C61.4907 55.118 62.2042 52.8248 62.3854 50.4599C62.5665 48.0951 62.2107 45.72 61.3444 43.5121C60.4781 41.3042 59.1238 39.3208 57.3828 37.7102V6.09375C57.3828 4.47759 56.7408 2.92762 55.598 1.78482C54.4552 0.642018 52.9052 0 51.2891 0ZM23.3594 4.0625H36.5625V24.375H23.3594V4.0625ZM31.0578 50.7812H8.63281C8.09409 50.7812 7.57744 50.5672 7.1965 50.1863C6.81557 49.8054 6.60156 49.2887 6.60156 48.75V6.09375C6.60156 5.55503 6.81557 5.03837 7.1965 4.65744C7.57744 4.27651 8.09409 4.0625 8.63281 4.0625H19.2969V26.4062C19.2969 26.945 19.5109 27.4616 19.8918 27.8426C20.2727 28.2235 20.7894 28.4375 21.3281 28.4375H38.5938C39.1325 28.4375 39.6491 28.2235 40.0301 27.8426C40.411 27.4616 40.625 26.945 40.625 26.4062V4.0625H51.2891C51.8278 4.0625 52.3444 4.27651 52.7254 4.65744C53.1063 5.03837 53.3203 5.55503 53.3203 6.09375V34.9883C50.9282 33.8715 48.2931 33.3759 45.6587 33.5473C43.0243 33.7187 40.4756 34.5516 38.2483 35.9689C36.0211 37.3863 34.1872 39.3423 32.9161 41.6562C31.6451 43.9701 30.978 46.5671 30.9766 49.207C30.976 49.7328 31.0031 50.2583 31.0578 50.7812ZM58.3984 49.2578C58.3984 51.5678 57.7134 53.826 56.4301 55.7467C55.1467 57.6674 53.3226 59.1644 51.1884 60.0484C49.0542 60.9324 46.7058 61.1637 44.4402 60.7131C42.1745 60.2624 40.0934 59.15 38.46 57.5166C36.8265 55.8832 35.7141 53.802 35.2635 51.5364C34.8128 49.2708 35.0441 46.9224 35.9281 44.7882C36.8121 42.654 38.3092 40.8299 40.2299 39.5465C42.1506 38.2631 44.4087 37.5781 46.7188 37.5781C49.8156 37.5808 52.7848 38.8122 54.9746 41.002C57.1643 43.1918 58.3957 46.161 58.3984 49.2578Z" fill="black"/>
<path d="M44.4641 51.9696L38.2891 45.7946L35.4148 48.6586L43.032 56.2758C43.4112 56.6573 43.9262 56.8728 44.4641 56.875C44.7321 56.8752 44.9975 56.8224 45.245 56.7196C45.4926 56.6167 45.7173 56.4659 45.9062 56.2758L57.0781 45.1039L54.2039 42.2399L44.4641 51.9696ZM9.64844 43.6719H13.7109V47.7344H9.64844V43.6719ZM15.7422 43.6719H19.8047V47.7344H15.7422V43.6719Z" fill="black"/>
</svg>
