<svg width="14" height="14" viewBox="0 0 14 14" fill="none" xmlns="http://www.w3.org/2000/svg">
<path d="M3.91754 7.52479C3.84813 7.58675 3.79303 7.66046 3.75544 7.74168C3.71784 7.8229 3.69848 7.91001 3.69848 7.998C3.69848 8.08599 3.71784 8.1731 3.75544 8.25432C3.79303 8.33554 3.84813 8.40926 3.91754 8.47122L6.13921 10.4707C6.20805 10.5332 6.28996 10.5828 6.3802 10.6166C6.47044 10.6504 6.56724 10.6679 6.665 10.6679C6.76276 10.6679 6.85956 10.6504 6.9498 10.6166C7.04004 10.5828 7.12195 10.5332 7.19079 10.4707L9.41246 8.47122C9.55191 8.34571 9.63025 8.17549 9.63025 7.998C9.63025 7.82051 9.55191 7.65029 9.41246 7.52479C9.27301 7.39928 9.08388 7.32877 8.88667 7.32877C8.68946 7.32877 8.50032 7.39928 8.36087 7.52479L7.40556 8.39124V0.6665C7.40556 0.489733 7.32753 0.320206 7.18865 0.195213C7.04977 0.0702203 6.86141 0 6.665 0C6.46859 0 6.28023 0.0702203 6.14135 0.195213C6.00247 0.320206 5.92444 0.489733 5.92444 0.6665V8.39124L4.96913 7.52479C4.90028 7.46232 4.81838 7.41273 4.72813 7.37889C4.63789 7.34506 4.5411 7.32764 4.44333 7.32764C4.34557 7.32764 4.24878 7.34506 4.15853 7.37889C4.06829 7.41273 3.98638 7.46232 3.91754 7.52479ZM11.1083 4.6655H9.62722C9.43081 4.6655 9.24245 4.73572 9.10357 4.86071C8.96469 4.98571 8.88667 5.15523 8.88667 5.332C8.88667 5.50877 8.96469 5.67829 9.10357 5.80329C9.24245 5.92828 9.43081 5.9985 9.62722 5.9985H11.1083C11.3047 5.9985 11.4931 6.06872 11.632 6.19371C11.7709 6.31871 11.8489 6.48823 11.8489 6.665V11.3305C11.8489 11.5073 11.7709 11.6768 11.632 11.8018C11.4931 11.9268 11.3047 11.997 11.1083 11.997H2.22167C2.02526 11.997 1.8369 11.9268 1.69801 11.8018C1.55913 11.6768 1.48111 11.5073 1.48111 11.3305V6.665C1.48111 6.48823 1.55913 6.31871 1.69801 6.19371C1.8369 6.06872 2.02526 5.9985 2.22167 5.9985H3.70278C3.89919 5.9985 4.08755 5.92828 4.22643 5.80329C4.36531 5.67829 4.44333 5.50877 4.44333 5.332C4.44333 5.15523 4.36531 4.98571 4.22643 4.86071C4.08755 4.73572 3.89919 4.6655 3.70278 4.6655H2.22167C1.63244 4.6655 1.06735 4.87616 0.650711 5.25114C0.234068 5.62612 0 6.1347 0 6.665V11.3305C0 11.8608 0.234068 12.3694 0.650711 12.7444C1.06735 13.1193 1.63244 13.33 2.22167 13.33H11.1083C11.6976 13.33 12.2626 13.1193 12.6793 12.7444C13.0959 12.3694 13.33 11.8608 13.33 11.3305V6.665C13.33 6.1347 13.0959 5.62612 12.6793 5.25114C12.2626 4.87616 11.6976 4.6655 11.1083 4.6655Z" fill="black"/>
</svg>
