<svg width="65" height="65" viewBox="0 0 65 65" fill="none" xmlns="http://www.w3.org/2000/svg">
<g clip-path="url(#clip0_43_1591)">
<path d="M64.8172 32.6758L59.7391 21.5039C59.5233 21.027 59.1313 20.6521 58.6452 20.4578L47.7242 16.0906C47.2265 15.902 46.6747 15.9162 46.1874 16.1303C45.7001 16.3444 45.3163 16.7411 45.1186 17.2353C44.9208 17.7294 44.9249 18.2814 45.1299 18.7726C45.335 19.2637 45.7246 19.6548 46.215 19.8616L52.4215 22.3438L32.5 30.3124L12.5785 22.3438L18.785 19.8606C19.0374 19.765 19.2682 19.62 19.4639 19.4341C19.6596 19.2483 19.8163 19.0253 19.9249 18.7782C20.0334 18.5311 20.0916 18.2648 20.0961 17.9949C20.1006 17.7251 20.0513 17.457 19.951 17.2064C19.8507 16.9559 19.7015 16.7278 19.5121 16.5355C19.3226 16.3433 19.0968 16.1907 18.8477 16.0867C18.5987 15.9827 18.3314 15.9294 18.0615 15.9299C17.7916 15.9304 17.5245 15.9847 17.2758 16.0896L6.35478 20.4588C5.86892 20.6529 5.47696 21.0274 5.26095 21.5039L0.182825 32.6758C0.0699817 32.9234 0.00809374 33.1912 0.000842678 33.4632C-0.00640839 33.7352 0.0411255 34.0059 0.140617 34.2592C0.240108 34.5124 0.389524 34.7431 0.579976 34.9375C0.770429 35.1318 0.998027 35.2859 1.24923 35.3905L5.07814 36.9851V52.8126C5.07838 53.2184 5.2001 53.615 5.42762 53.9511C5.65514 54.2872 5.97804 54.5475 6.35478 54.6986L31.7454 64.8548C32.2069 65.039 32.7199 65.048 33.1876 64.8802L58.5782 55.7396C58.9717 55.598 59.3119 55.3385 59.5524 54.9964C59.7929 54.6543 59.9219 54.2463 59.9219 53.8282V36.9851L63.7508 35.3905C64.002 35.2859 64.2296 35.1318 64.4201 34.9375C64.6105 34.7431 64.7599 34.5124 64.8594 34.2592C64.9589 34.0059 65.0064 33.7352 64.9992 33.4632C64.9919 33.1912 64.93 32.9234 64.8172 32.6758ZM4.74806 32.4472L8.15548 24.9509L29.6207 33.536L25.4983 41.0922L4.74806 32.4472ZM30.4688 59.9686L9.14064 51.4374V38.6771L25.6242 45.5458C26.0876 45.7384 26.6059 45.7529 27.0793 45.5864C27.5528 45.4199 27.9479 45.0842 28.1887 44.6439L30.4688 40.4666V59.9686ZM55.8594 52.4012L34.5313 60.0793V40.4666L36.8103 44.6449C37.0508 45.0858 37.4461 45.4219 37.9199 45.5885C38.3937 45.755 38.9123 45.7402 39.3758 45.5468L55.8594 38.6781V52.4012ZM39.5017 41.0922L35.3793 33.536L56.8445 24.9499L60.252 32.4462L39.5017 41.0922Z" fill="#414042"/>
<path d="M32.5 24.375C34.9105 24.375 37.2668 23.6602 39.271 22.321C41.2752 20.9819 42.8373 19.0784 43.7598 16.8515C44.6822 14.6245 44.9236 12.174 44.4533 9.80984C43.9831 7.4457 42.8223 5.27409 41.1179 3.56964C39.4134 1.86519 37.2418 0.704442 34.8777 0.234185C32.5135 -0.236073 30.063 0.00528067 27.836 0.927724C25.6091 1.85017 23.7056 3.41227 22.3665 5.41649C21.0273 7.42072 20.3125 9.77705 20.3125 12.1875C20.316 15.4188 21.6012 18.5167 23.886 20.8015C26.1708 23.0864 29.2687 24.3715 32.5 24.375ZM32.5 4.06251C34.107 4.06251 35.6779 4.53903 37.014 5.43181C38.3502 6.3246 39.3916 7.59355 40.0065 9.0782C40.6215 10.5629 40.7824 12.1965 40.4689 13.7726C40.1554 15.3487 39.3815 16.7964 38.2452 17.9327C37.1089 19.069 35.6612 19.8429 34.0851 20.1564C32.509 20.4699 30.8753 20.309 29.3907 19.694C27.906 19.0791 26.6371 18.0377 25.7443 16.7015C24.8515 15.3654 24.375 13.7945 24.375 12.1875C24.3777 10.0334 25.2346 7.96838 26.7577 6.44523C28.2809 4.92208 30.3459 4.06519 32.5 4.06251ZM28.1907 13.6236L29.6278 12.1875L28.1907 10.7514C27.9967 10.564 27.842 10.3399 27.7355 10.0921C27.629 9.84426 27.573 9.57772 27.5707 9.30801C27.5683 9.0383 27.6197 8.77083 27.7218 8.52119C27.824 8.27156 27.9748 8.04477 28.1655 7.85405C28.3562 7.66333 28.583 7.5125 28.8327 7.41037C29.0823 7.30823 29.3498 7.25684 29.6195 7.25918C29.8892 7.26153 30.1557 7.31756 30.4036 7.42402C30.6514 7.53047 30.8755 7.68522 31.0629 7.87922L32.5 9.31532L33.9361 7.87922C34.3192 7.50922 34.8323 7.30448 35.3649 7.3091C35.8975 7.31373 36.4069 7.52736 36.7835 7.90397C37.1601 8.28058 37.3738 8.79004 37.3784 9.32263C37.383 9.85522 37.1783 10.3683 36.8083 10.7514L35.3722 12.1875L36.8083 13.6236C37.0023 13.811 37.157 14.0351 37.2635 14.2829C37.3699 14.5308 37.426 14.7973 37.4283 15.067C37.4307 15.3367 37.3793 15.6042 37.2771 15.8538C37.175 16.1035 37.0242 16.3302 36.8335 16.521C36.6427 16.7117 36.4159 16.8625 36.1663 16.9646C35.9167 17.0668 35.6492 17.1182 35.3795 17.1158C35.1098 17.1135 34.8432 17.0574 34.5954 16.951C34.3476 16.8445 34.1235 16.6898 33.9361 16.4958L32.5 15.0597L31.0639 16.4958C30.8765 16.6898 30.6524 16.8445 30.4046 16.951C30.1568 17.0574 29.8902 17.1135 29.6205 17.1158C29.3508 17.1182 29.0833 17.0668 28.8337 16.9646C28.5841 16.8625 28.3573 16.7117 28.1665 16.521C27.9758 16.3302 27.825 16.1035 27.7229 15.8538C27.6207 15.6042 27.5693 15.3367 27.5717 15.067C27.574 14.7973 27.6301 14.5308 27.7365 14.2829C27.843 14.0351 27.9967 13.811 28.1907 13.6236Z" fill="#D14F4F"/>
</g>
<defs>
<clipPath id="clip0_43_1591">
<rect width="65" height="65" fill="white"/>
</clipPath>
</defs>
</svg>
